<svg width="922" height="376" viewBox="0 0 922 376" fill="none" xmlns="http://www.w3.org/2000/svg">
<path d="M461 20C586.368 20 698.939 40.7533 779.426 73.5654C819.719 89.9918 851.001 109.047 871.893 129.183C892.727 149.264 902 169.116 902 187.937C902 206.756 892.727 226.608 871.893 246.689C851.001 266.825 819.719 285.88 779.426 302.307C698.939 335.119 586.368 355.872 461 355.872C335.632 355.872 223.061 335.119 142.574 302.307C102.281 285.88 70.9988 266.825 50.1074 246.689C29.2728 226.608 20.0001 206.756 20 187.937C20 169.116 29.2726 149.264 50.1074 129.183C70.9988 109.047 102.281 89.9918 142.574 73.5654C223.061 40.7533 335.632 20 461 20Z" stroke="#F0B629" stroke-width="40"/>
</svg>
