<svg width="324" height="202" viewBox="0 0 324 202" fill="none" xmlns="http://www.w3.org/2000/svg">
<path d="M161.841 10C205.565 10 244.685 17.2432 272.504 28.584C286.438 34.2645 297.051 40.777 304.022 47.4961C310.965 54.1881 313.681 60.4322 313.681 65.9775C313.681 71.5229 310.966 77.767 304.022 84.459C297.051 91.1781 286.438 97.6906 272.504 103.371C244.685 114.712 205.565 121.955 161.841 121.955C118.116 121.955 78.9954 114.712 51.1768 103.371C37.2426 97.6905 26.6295 91.1782 19.6582 84.459C12.7152 77.767 10 71.5229 10 65.9775C10 60.4322 12.7152 54.1881 19.6582 47.4961C26.6295 40.7769 37.2426 34.2645 51.1768 28.584C78.9954 17.2432 118.116 10 161.841 10Z" stroke="#F0B629" stroke-width="20"/>
<path d="M212.325 49.9681L239.216 97.264L229.866 151.111L188.741 186.156H135.17L94.0432 151.111L84.6936 97.265L111.583 49.9681L161.955 31.351L212.325 49.9681Z" fill="#001BAD" stroke="#F0B629" stroke-width="20"/>
</svg>
