<svg width="40" height="40" viewBox="0 0 40 40" fill="none" xmlns="http://www.w3.org/2000/svg">
<path d="M6.43995 27.425C7.34995 31.0633 7.80495 32.8817 9.15995 33.9417C10.5166 35 12.3916 35 16.1416 35H23.8583C27.6083 35 29.4833 35 30.8416 33.9417C32.1966 32.8817 32.6516 31.0633 33.5599 27.425C34.9899 21.705 35.7049 18.8467 34.2049 16.9233C32.7033 15 29.7549 15 23.8599 15H16.1416C10.2449 15 7.29828 15 5.79661 16.9233C4.91495 18.0517 4.79661 19.5033 5.13995 21.6667" stroke="#F0B629" stroke-width="1.5" stroke-linecap="round"/>
<path d="M32.5 15.8333L31.3167 11.4917C30.86 9.81667 30.6317 8.98 30.1633 8.34833C29.6964 7.72077 29.0622 7.23734 28.3333 6.95333C27.6 6.66667 26.7333 6.66667 25 6.66667M7.5 15.8333L8.68333 11.4917C9.14 9.81667 9.36833 8.98 9.83667 8.34833C10.3036 7.72077 10.9378 7.23734 11.6667 6.95333C12.4 6.66667 13.2667 6.66667 15 6.66667" stroke="#F0B629" stroke-width="1.5"/>
<path d="M15 6.66667C15 6.22464 15.1756 5.80072 15.4882 5.48816C15.8007 5.17559 16.2246 5 16.6667 5H23.3333C23.7754 5 24.1993 5.17559 24.5118 5.48816C24.8244 5.80072 25 6.22464 25 6.66667C25 7.10869 24.8244 7.53262 24.5118 7.84518C24.1993 8.15774 23.7754 8.33333 23.3333 8.33333H16.6667C16.2246 8.33333 15.8007 8.15774 15.4882 7.84518C15.1756 7.53262 15 7.10869 15 6.66667Z" stroke="#F0B629" stroke-width="1.5"/>
</svg>
