<svg width="48" height="48" viewBox="0 0 48 48" fill="none" xmlns="http://www.w3.org/2000/svg">
<path d="M23 28C31.28 28 38 31.14 38 35V40H8V35C8 31.14 14.72 28 23 28ZM36 35C36 32.24 30.18 30 23 30C15.82 30 10 32.24 10 35V38H36V35ZM23 10C24.8565 10 26.637 10.7375 27.9497 12.0503C29.2625 13.363 30 15.1435 30 17C30 18.8565 29.2625 20.637 27.9497 21.9497C26.637 23.2625 24.8565 24 23 24C21.1435 24 19.363 23.2625 18.0503 21.9497C16.7375 20.637 16 18.8565 16 17C16 15.1435 16.7375 13.363 18.0503 12.0503C19.363 10.7375 21.1435 10 23 10ZM23 12C21.6739 12 20.4021 12.5268 19.4645 13.4645C18.5268 14.4021 18 15.6739 18 17C18 18.3261 18.5268 19.5979 19.4645 20.5355C20.4021 21.4732 21.6739 22 23 22C24.3261 22 25.5979 21.4732 26.5355 20.5355C27.4732 19.5979 28 18.3261 28 17C28 15.6739 27.4732 14.4021 26.5355 13.4645C25.5979 12.5268 24.3261 12 23 12Z" fill="#000F61"/>
</svg>
