<svg width="40" height="40" viewBox="0 0 40 40" fill="none" xmlns="http://www.w3.org/2000/svg">
<path d="M6.44019 27.425C7.35019 31.0633 7.80519 32.8817 9.16019 33.9417C10.5169 35 12.3919 35 16.1419 35H23.8585C27.6085 35 29.4835 35 30.8419 33.9417C32.1969 32.8817 32.6519 31.0633 33.5602 27.425C34.9902 21.705 35.7052 18.8467 34.2052 16.9233C32.7035 15 29.7552 15 23.8602 15H16.1419C10.2452 15 7.29852 15 5.79686 16.9233C4.91519 18.0517 4.79686 19.5033 5.14019 21.6667" stroke="#EFEBE1" stroke-width="1.5" stroke-linecap="round"/>
<path d="M32.5 15.8334L31.3167 11.4917C30.86 9.81669 30.6317 8.98002 30.1633 8.34835C29.6964 7.72079 29.0622 7.23736 28.3333 6.95335C27.6 6.66669 26.7333 6.66669 25 6.66669M7.5 15.8334L8.68333 11.4917C9.14 9.81669 9.36833 8.98002 9.83667 8.34835C10.3036 7.72079 10.9378 7.23736 11.6667 6.95335C12.4 6.66669 13.2667 6.66669 15 6.66669" stroke="#EFEBE1" stroke-width="1.5"/>
<path d="M15 6.66667C15 6.22464 15.1756 5.80072 15.4882 5.48816C15.8007 5.17559 16.2246 5 16.6667 5H23.3333C23.7754 5 24.1993 5.17559 24.5118 5.48816C24.8244 5.80072 25 6.22464 25 6.66667C25 7.10869 24.8244 7.53262 24.5118 7.84518C24.1993 8.15774 23.7754 8.33333 23.3333 8.33333H16.6667C16.2246 8.33333 15.8007 8.15774 15.4882 7.84518C15.1756 7.53262 15 7.10869 15 6.66667Z" stroke="#EFEBE1" stroke-width="1.5"/>
</svg>
