<svg width="30" height="30" viewBox="0 0 30 30" fill="none" xmlns="http://www.w3.org/2000/svg">
<path d="M27.5 15C27.5 21.9037 21.9037 27.5 15 27.5C8.09625 27.5 2.5 21.9037 2.5 15C2.5 8.09625 8.09625 2.5 15 2.5C21.9037 2.5 27.5 8.09625 27.5 15Z" stroke="#000F61" stroke-width="1.5" stroke-linecap="round" stroke-linejoin="round"/>
<path d="M18.75 17.5C18.75 18.163 18.4866 18.7989 18.0178 19.2678C17.5489 19.7366 16.913 20 16.25 20H15C13.835 20 13.2525 20 12.7937 19.81C12.4902 19.6844 12.2144 19.5001 11.9822 19.2678C11.7499 19.0356 11.5656 18.7598 11.44 18.4563C11.25 17.9975 11.25 17.415 11.25 16.25V13.75C11.25 12.585 11.25 12.0025 11.44 11.5437C11.5656 11.2402 11.7499 10.9644 11.9822 10.7322C12.2144 10.4999 12.4902 10.3156 12.7937 10.19C13.2525 10 13.835 10 15 10H16.25C16.913 10 17.5489 10.2634 18.0178 10.7322C18.4866 11.2011 18.75 11.837 18.75 12.5" stroke="#000F61" stroke-width="1.5" stroke-linecap="round" stroke-linejoin="round"/>
</svg>
