<svg width="48" height="49" viewBox="0 0 48 49" fill="none" xmlns="http://www.w3.org/2000/svg">
<path d="M23 28.5C31.28 28.5 38 31.64 38 35.5V40.5H8V35.5C8 31.64 14.72 28.5 23 28.5ZM36 35.5C36 32.74 30.18 30.5 23 30.5C15.82 30.5 10 32.74 10 35.5V38.5H36V35.5ZM23 10.5C24.8565 10.5 26.637 11.2375 27.9497 12.5503C29.2625 13.863 30 15.6435 30 17.5C30 19.3565 29.2625 21.137 27.9497 22.4497C26.637 23.7625 24.8565 24.5 23 24.5C21.1435 24.5 19.363 23.7625 18.0503 22.4497C16.7375 21.137 16 19.3565 16 17.5C16 15.6435 16.7375 13.863 18.0503 12.5503C19.363 11.2375 21.1435 10.5 23 10.5ZM23 12.5C21.6739 12.5 20.4021 13.0268 19.4645 13.9645C18.5268 14.9021 18 16.1739 18 17.5C18 18.8261 18.5268 20.0979 19.4645 21.0355C20.4021 21.9732 21.6739 22.5 23 22.5C24.3261 22.5 25.5979 21.9732 26.5355 21.0355C27.4732 20.0979 28 18.8261 28 17.5C28 16.1739 27.4732 14.9021 26.5355 13.9645C25.5979 13.0268 24.3261 12.5 23 12.5Z" fill="#EFEBE1"/>
</svg>
