<svg width="1519" height="776" viewBox="0 0 1519 776" fill="none" xmlns="http://www.w3.org/2000/svg">
<path d="M276.129 2.5C427.325 2.5 549.758 121.219 549.758 267.5C549.758 413.781 427.325 532.5 276.129 532.5C124.932 532.5 2.5 413.781 2.5 267.5C2.5 121.219 124.932 2.50006 276.129 2.5Z" stroke="#F0B629" stroke-width="5"/>
<path d="M670.588 578.46L629.324 506.988L643.655 425.713L706.875 372.665H789.403L852.624 425.713L866.954 506.988L825.69 578.46L748.14 606.685L670.588 578.46Z" stroke="#00072D" stroke-width="17.3148"/>
<path d="M711.412 246.438L752.676 317.91L738.345 399.186L675.125 452.233H592.597L529.376 399.186L515.046 317.91L556.31 246.438L633.86 218.213L711.412 246.438Z" stroke="#F0B629" stroke-width="17.3148"/>
<path d="M1162.5 383C1259.54 383 1346.91 405.254 1409.66 440.724C1472.72 476.365 1509 524.05 1509 574.5C1509 624.95 1472.72 672.635 1409.66 708.276C1346.91 743.746 1259.54 766 1162.5 766C1065.46 766 978.09 743.746 915.337 708.276C852.28 672.635 816 624.95 816 574.5C816 524.05 852.28 476.365 915.337 440.724C978.09 405.254 1065.46 383 1162.5 383Z" stroke="#00072D" stroke-width="20"/>
</svg>
