<svg width="460" height="460" viewBox="0 0 460 460" fill="none" xmlns="http://www.w3.org/2000/svg">
<rect x="154.822" y="75.1433" width="118.926" height="68.4724" transform="rotate(-5.85 154.822 75.1433)" fill="#F0B629"/>
<rect width="118.926" height="68.4724" transform="matrix(-0.696539 0.717519 0.717519 0.696539 154.712 75.1968)" fill="#F0B629"/>
<rect x="270.868" y="62.4893" width="118.926" height="68.4724" transform="rotate(34.15 270.868 62.4893)" fill="#F0B629"/>
<rect x="290.938" y="320.253" width="118.926" height="68.4724" transform="rotate(-65.85 290.938 320.253)" fill="#F0B629"/>
<rect x="147.306" y="303.807" width="118.926" height="68.4724" transform="rotate(14.15 147.306 303.807)" fill="#F0B629"/>
<rect x="119.542" y="235.952" width="118.926" height="68.4724" transform="rotate(54.15 119.542 235.952)" fill="#F0B629"/>
<rect x="216.699" y="338.4" width="118.926" height="68.4724" transform="rotate(-25.85 216.699 338.4)" fill="#F0B629"/>
<rect x="141.318" y="163.278" width="118.926" height="68.4724" transform="rotate(94.15 141.318 163.278)" fill="#F0B629"/>
<rect x="335.614" y="261.386" width="118.926" height="68.4724" transform="rotate(-105.85 335.614 261.386)" fill="#F0B629"/>
</svg>
