<svg width="1408" height="574" viewBox="0 0 1408 574" fill="none" xmlns="http://www.w3.org/2000/svg">
<path d="M704 20C896.471 20 1069.79 51.8409 1194.25 102.58C1256.53 127.97 1305.61 157.699 1338.8 189.687C1371.93 221.62 1388 254.502 1388 287C1388 319.498 1371.93 352.38 1338.8 384.313C1305.61 416.301 1256.53 446.03 1194.25 471.42C1069.79 522.159 896.471 554 704 554C511.529 554 338.208 522.159 213.747 471.42C151.466 446.03 102.391 416.301 69.2031 384.313C36.0718 352.38 20 319.498 20 287C20 254.502 36.0718 221.62 69.2031 189.687C102.391 157.699 151.466 127.97 213.747 102.58C338.208 51.8409 511.529 20 704 20Z" stroke="#F0B629" stroke-width="40"/>
</svg>
